<svg width="22.000000" height="22.000000" viewBox="0 0 22 22" fill="none" xmlns="http://www.w3.org/2000/svg" xmlns:xlink="http://www.w3.org/1999/xlink">
	<desc>
			Created with Pixso.
	</desc>
	<defs>
		<clipPath id="clip1_239">
			<rect id="gridicons:search" width="22.000000" height="22.000000" fill="white" fill-opacity="0"/>
		</clipPath>
	</defs>
	<rect id="gridicons:search" width="22.000000" height="22.000000" fill="#FFFFFF" fill-opacity="0"/>
	<g clip-path="url(#clip1_239)">
		<path id="Vector" d="M19.24 17.41L14.52 12.69C15.39 11.36 15.74 9.76 15.5 8.18C15.26 6.61 14.45 5.19 13.21 4.19C11.98 3.18 10.42 2.67 8.83 2.75C7.25 2.83 5.75 3.5 4.62 4.62C3.5 5.75 2.83 7.25 2.75 8.83C2.67 10.42 3.18 11.98 4.19 13.21C5.19 14.45 6.61 15.26 8.18 15.5C9.76 15.74 11.36 15.39 12.69 14.52L17.41 19.25L19.24 17.41ZM4.58 9.16C4.58 6.63 6.63 4.58 9.16 4.58C11.69 4.58 13.74 6.63 13.74 9.16C13.74 11.69 11.69 13.75 9.16 13.75C6.63 13.75 4.58 11.69 4.58 9.16Z" fill="#FFFFFF" fill-opacity="1.000000" fill-rule="nonzero"/>
	</g>
</svg>
