<svg width="16.000000" height="16.000000" viewBox="0 0 16 16" fill="none" xmlns="http://www.w3.org/2000/svg" xmlns:xlink="http://www.w3.org/1999/xlink">
	<desc>
			Created with Pixso.
	</desc>
	<defs>
		<clipPath id="clip1_219">
			<rect id="eva:phone-outline" width="16.000000" height="16.000000" fill="white" fill-opacity="0"/>
		</clipPath>
	</defs>
	<rect id="eva:phone-outline" width="16.000000" height="16.000000" fill="#FFFFFF" fill-opacity="0"/>
	<g clip-path="url(#clip1_219)">
		<path id="Vector" d="M11.6 14.66C8.87 14.66 6.26 13.58 4.34 11.65C2.41 9.73 1.33 7.12 1.33 4.39C1.33 3.58 1.65 2.8 2.23 2.23C2.8 1.65 3.58 1.33 4.4 1.33C4.57 1.33 4.74 1.34 4.91 1.37C5.07 1.4 5.23 1.44 5.39 1.5C5.5 1.53 5.6 1.6 5.67 1.69C5.75 1.78 5.8 1.88 5.82 2L6.74 6C6.76 6.1 6.76 6.22 6.73 6.32C6.7 6.43 6.64 6.53 6.56 6.61C6.48 6.7 6.47 6.71 5.65 7.13C6.31 8.58 7.46 9.73 8.9 10.39C9.33 9.57 9.34 9.56 9.43 9.47C9.51 9.4 9.61 9.34 9.71 9.31C9.82 9.28 9.93 9.28 10.04 9.3L14.04 10.22C14.15 10.24 14.25 10.29 14.34 10.37C14.42 10.45 14.49 10.54 14.52 10.65C14.58 10.81 14.62 10.97 14.65 11.13C14.68 11.3 14.69 11.47 14.69 11.64C14.68 12.45 14.34 13.22 13.76 13.79C13.18 14.36 12.41 14.67 11.6 14.66ZM4.4 2.66C3.94 2.66 3.5 2.85 3.17 3.17C2.85 3.5 2.66 3.94 2.66 4.39C2.66 6.76 3.61 9.04 5.28 10.71C6.96 12.38 9.23 13.33 11.6 13.33C12.05 13.33 12.49 13.14 12.82 12.82C13.14 12.49 13.33 12.05 13.33 11.6L13.33 11.37L10.24 10.66L10.04 11.03C9.74 11.61 9.52 12.03 8.96 11.8C7.86 11.41 6.85 10.77 6.03 9.94C5.2 9.11 4.57 8.1 4.18 7C3.94 6.47 4.39 6.23 4.96 5.93L5.33 5.76L4.62 2.66L4.4 2.66Z" fill="#969696" fill-opacity="1.000000" fill-rule="nonzero"/>
	</g>
</svg>
